<?xml version="1.0" encoding="UTF-8" standalone="no"?>
<!-- Created with Inkscape (http://www.inkscape.org/) -->

<svg
   xmlns:dc="http://purl.org/dc/elements/1.1/"
   xmlns:cc="http://creativecommons.org/ns#"
   xmlns:rdf="http://www.w3.org/1999/02/22-rdf-syntax-ns#"
   xmlns:svg="http://www.w3.org/2000/svg"
   xmlns="http://www.w3.org/2000/svg"
   xmlns:xlink="http://www.w3.org/1999/xlink"
   xmlns:sodipodi="http://sodipodi.sourceforge.net/DTD/sodipodi-0.dtd"
   xmlns:inkscape="http://www.inkscape.org/namespaces/inkscape"
   width="152.5864mm"
   height="67.165428mm"
   viewBox="0 0 540.66045 237.98773"
   id="svg5362"
   version="1.1"
   inkscape:version="0.91 r13725"
   sodipodi:docname="archiver.svg"
   inkscape:export-filename="C:\Users\Jeff\Dropbox\__temp-logo\archiver.png"
   inkscape:export-xdpi="49.938919"
   inkscape:export-ydpi="49.938919">
  <defs
     id="defs5364">
    <marker
       inkscape:stockid="Arrow1Lstart"
       orient="auto"
       refY="0"
       refX="0"
       id="marker6271"
       style="overflow:visible"
       inkscape:isstock="true">
      <path
         id="path6273"
         d="M 0,0 5,-5 -12.5,0 5,5 0,0 Z"
         style="fill:#000000;fill-opacity:0.21568627;fill-rule:evenodd;stroke:#000000;stroke-width:1pt;stroke-opacity:0.21568627"
         transform="matrix(0.8,0,0,0.8,10,0)"
         inkscape:connector-curvature="0" />
    </marker>
    <marker
       inkscape:stockid="Arrow1Lstart"
       orient="auto"
       refY="0"
       refX="0"
       id="marker6237"
       style="overflow:visible"
       inkscape:isstock="true">
      <path
         id="path6239"
         d="M 0,0 5,-5 -12.5,0 5,5 0,0 Z"
         style="fill:#000000;fill-opacity:0.21568627;fill-rule:evenodd;stroke:#000000;stroke-width:1pt;stroke-opacity:0.21568627"
         transform="matrix(0.8,0,0,0.8,10,0)"
         inkscape:connector-curvature="0" />
    </marker>
    <marker
       inkscape:stockid="Arrow1Lstart"
       orient="auto"
       refY="0"
       refX="0"
       id="marker6209"
       style="overflow:visible"
       inkscape:isstock="true">
      <path
         id="path6211"
         d="M 0,0 5,-5 -12.5,0 5,5 0,0 Z"
         style="fill:#000000;fill-opacity:0.21568627;fill-rule:evenodd;stroke:#000000;stroke-width:1pt;stroke-opacity:0.21568627"
         transform="matrix(0.8,0,0,0.8,10,0)"
         inkscape:connector-curvature="0" />
    </marker>
    <marker
       inkscape:stockid="Arrow1Lstart"
       orient="auto"
       refY="0"
       refX="0"
       id="marker6187"
       style="overflow:visible"
       inkscape:isstock="true">
      <path
         id="path6189"
         d="M 0,0 5,-5 -12.5,0 5,5 0,0 Z"
         style="fill:#000000;fill-opacity:0.21568627;fill-rule:evenodd;stroke:#000000;stroke-width:1pt;stroke-opacity:0.21568627"
         transform="matrix(0.8,0,0,0.8,10,0)"
         inkscape:connector-curvature="0" />
    </marker>
    <marker
       inkscape:stockid="Arrow1Lstart"
       orient="auto"
       refY="0"
       refX="0"
       id="Arrow1Lstart"
       style="overflow:visible"
       inkscape:isstock="true">
      <path
         id="path5917"
         d="M 0,0 5,-5 -12.5,0 5,5 0,0 Z"
         style="fill:#000000;fill-opacity:0.21568627;fill-rule:evenodd;stroke:#000000;stroke-width:1pt;stroke-opacity:0.21568627"
         transform="matrix(0.8,0,0,0.8,10,0)"
         inkscape:connector-curvature="0" />
    </marker>
  </defs>
  <sodipodi:namedview
     id="base"
     pagecolor="#ffffff"
     bordercolor="#666666"
     borderopacity="1.0"
     inkscape:pageopacity="0.0"
     inkscape:pageshadow="2"
     inkscape:zoom="1.4"
     inkscape:cx="312.59117"
     inkscape:cy="80.991202"
     inkscape:document-units="px"
     inkscape:current-layer="layer1"
     showgrid="false"
     showguides="false"
     inkscape:window-width="1600"
     inkscape:window-height="838"
     inkscape:window-x="-8"
     inkscape:window-y="-8"
     inkscape:window-maximized="1"
     fit-margin-top="0"
     fit-margin-left="0"
     fit-margin-right="0"
     fit-margin-bottom="0">
    <sodipodi:guide
       position="99.614005,312.46468"
       orientation="-0.70710678,0.70710678"
       id="guide6337" />
  </sodipodi:namedview>
  <metadata
     id="metadata5367">
    <rdf:RDF>
      <cc:Work
         rdf:about="">
        <dc:format>image/svg+xml</dc:format>
        <dc:type
           rdf:resource="http://purl.org/dc/dcmitype/StillImage" />
        <dc:title></dc:title>
      </cc:Work>
    </rdf:RDF>
  </metadata>
  <g
     inkscape:label="Layer 1"
     inkscape:groupmode="layer"
     id="layer1"
     transform="translate(-97.87081,-449.02679)">
    <path
       style="opacity:1;fill:none;fill-opacity:0.21568627;fill-rule:nonzero;stroke:#000000;stroke-width:8;stroke-linecap:round;stroke-linejoin:miter;stroke-miterlimit:3.9000001;stroke-dasharray:none;stroke-opacity:1"
       d="m 174.75638,534.05337 0,-57.45514 0,0 23.81505,6e-5 22.14286,-23.57149 69.99271,4.9e-4 23.57104,23.571 247.36677,-6e-5 0,77.45514"
       id="path6335"
       inkscape:connector-curvature="0"
       sodipodi:nodetypes="ccccccccc" />
    <path
       style="opacity:1;fill:none;fill-opacity:0.21568627;fill-rule:nonzero;stroke:#000000;stroke-width:8;stroke-linecap:round;stroke-linejoin:miter;stroke-miterlimit:3.9000001;stroke-dasharray:none;stroke-opacity:1"
       d="m 561.64481,620.03788 0,62.97665 -386.88843,0 0,-60.97665"
       id="path6331"
       inkscape:connector-curvature="0"
       sodipodi:nodetypes="cccc" />
    <path
       sodipodi:type="inkscape:offset"
       inkscape:radius="9.0913715"
       inkscape:original="M 319.18164 518.32422 L 319.18164 615.32812 L 340.36523 615.32812 L 340.36523 583.23047 C 340.36523 579.01104 341.35539 575.88884 343.33594 573.86523 C 345.48871 571.66941 348.20045 570.57227 351.47266 570.57227 C 355.0032 570.57227 357.6527 571.84255 359.41797 574.38281 C 360.62352 576.10503 361.22656 579.63574 361.22656 584.97461 L 361.22656 615.32812 L 382.4082 615.32812 L 382.4082 577.1582 C 382.4082 569.23601 380.10497 563.29508 375.49805 559.33398 C 371.36473 555.80344 366.11243 554.03906 359.74023 554.03906 C 354.74581 554.03906 350.54786 555.00782 347.14648 556.94531 C 345.07983 558.10781 342.81939 560.10952 340.36523 562.95117 L 340.36523 518.32422 L 319.18164 518.32422 z M 407.4668 520.45508 C 404.15153 520.45508 401.33085 521.61837 399.00586 523.94336 C 396.72392 526.22529 395.58398 529.02263 395.58398 532.33789 C 395.58398 535.65315 396.72392 538.47384 399.00586 540.79883 C 401.33085 543.12382 404.15153 544.28711 407.4668 544.28711 C 410.82512 544.28711 413.6458 543.14522 415.92773 540.86328 C 418.25272 538.53829 419.41406 535.69621 419.41406 532.33789 C 419.41406 529.02263 418.25272 526.22529 415.92773 523.94336 C 413.60274 521.61837 410.78206 520.45508 407.4668 520.45508 z M 140.86914 527.17188 L 106.96289 615.32812 L 131.18164 615.32812 L 137.25195 599.95703 L 168.89648 599.95703 L 174.58008 615.32812 L 199.05664 615.32812 L 165.86133 527.17188 L 140.86914 527.17188 z M 293.21875 553.52148 C 282.28268 553.52148 273.60861 557.22533 267.19336 564.63086 C 262.02671 570.5725 259.44336 577.50359 259.44336 585.42578 C 259.44336 593.30492 262.02671 600.23601 267.19336 606.2207 C 273.60861 613.62623 282.28268 617.33008 293.21875 617.33008 C 298.04095 617.33008 302.64937 616.23098 307.04102 614.03516 L 307.04102 596.01758 C 303.25214 598.6009 299.59109 599.89258 296.06055 599.89258 C 291.84112 599.89258 288.35515 598.53671 285.59961 595.82422 C 282.84407 593.11173 281.46484 589.64521 281.46484 585.42578 C 281.46484 581.20635 282.84407 577.73983 285.59961 575.02734 C 288.35515 572.31485 291.84112 570.95898 296.06055 570.95898 C 299.63414 570.95898 303.2952 572.27206 307.04102 574.89844 L 307.04102 556.88086 C 302.73548 554.64198 298.12706 553.52148 293.21875 553.52148 z M 539.73242 553.71484 C 529.1408 553.71484 520.93943 556.70866 515.12695 562.69336 C 509.31448 568.67806 506.4082 576.44952 506.4082 586.00781 C 506.4082 594.05917 508.73283 600.88327 513.38281 606.48047 C 519.58279 613.9721 528.84046 617.7168 541.1543 617.7168 C 550.84176 617.7168 558.57042 615.02645 564.33984 609.64453 C 567.52594 606.67371 569.93616 602.47576 571.57227 597.05078 L 551.09961 597.05078 C 548.73156 600.83965 545.33119 602.73438 540.89648 602.73438 C 532.1993 602.73438 527.84961 598.2349 527.84961 589.23633 L 572.41211 589.23633 L 572.41211 586.52344 C 572.41211 579.46236 570.84031 573.2627 567.69727 567.92383 C 562.10007 558.45164 552.7782 553.71484 539.73242 553.71484 z M 153.20312 554.42578 L 162.69727 582.51953 L 143.58008 582.51953 L 153.20312 554.42578 z M 248.14062 554.55469 C 243.36148 554.55469 239.22772 555.58764 235.74023 557.6543 C 233.15691 559.20429 230.74669 561.72345 228.50781 565.21094 L 228.50781 555.39453 L 207.32422 555.39453 L 207.32422 615.32812 L 228.50781 615.32812 L 228.50781 589.6875 C 228.50781 586.20001 228.89493 583.42408 229.66992 581.35742 C 231.73658 575.67411 236.25745 572.83203 243.23242 572.83203 C 246.28935 572.83203 249.30262 573.54206 252.27344 574.96289 L 252.27344 554.74805 C 250.63733 554.61888 249.26006 554.55469 248.14062 554.55469 z M 625.30664 554.55469 C 620.52749 554.55469 616.39374 555.58764 612.90625 557.6543 C 610.32293 559.20429 607.91075 561.72345 605.67188 565.21094 L 605.67188 555.39453 L 584.49023 555.39453 L 584.49023 615.32812 L 605.67188 615.32812 L 605.67188 589.6875 C 605.67188 586.20001 606.06094 583.42408 606.83594 581.35742 C 608.9026 575.67411 613.42347 572.83203 620.39844 572.83203 C 623.45537 572.83203 626.46863 573.54206 629.43945 574.96289 L 629.43945 554.74805 C 627.80335 554.61888 626.42608 554.55469 625.30664 554.55469 z M 396.875 555.39453 L 396.875 615.32812 L 418.05859 615.32812 L 418.05859 555.39453 L 396.875 555.39453 z M 425.35742 555.39453 L 456.29102 615.32812 L 470.43555 615.32812 L 501.62891 555.39453 L 477.92773 555.39453 L 463.52539 586.13672 L 449.1875 555.39453 L 425.35742 555.39453 z M 540.57227 567.14844 C 547.11668 567.14844 551.14345 570.46322 552.65039 577.09375 L 528.43164 577.09375 C 528.90525 574.25209 530.02379 571.99166 531.78906 570.3125 C 534.02794 568.20279 536.95561 567.14844 540.57227 567.14844 z "
       xlink:href="#text6323"
       style="font-style:normal;font-variant:normal;font-weight:bold;font-stretch:normal;font-size:132.26612854px;line-height:125%;font-family:Aharoni;-inkscape-font-specification:'Aharoni Bold';letter-spacing:0px;word-spacing:0px;fill:#000000;fill-opacity:1;stroke:none;stroke-width:1px;stroke-linecap:butt;stroke-linejoin:miter;stroke-opacity:1"
       id="path6339"
       inkscape:href="#text6323"
       d="m 319.18164,509.23242 a 9.0922807,9.0922807 0 0 0 -9.0918,9.0918 l 0,29.98047 c -5.26132,-2.5227 -11.00024,-3.875 -16.87109,-3.875 -12.46012,0 -23.80697,4.56519 -31.85352,13.17578 l 0,-2.85742 a 9.0922807,9.0922807 0 0 0 -8.37695,-9.0625 c -1.79959,-0.14208 -3.38068,-0.22266 -4.84766,-0.22266 -4.89467,0 -9.63795,0.93947 -13.94531,2.84375 a 9.0922807,9.0922807 0 0 0 -5.6875,-2.00391 l -21.18359,0 a 9.0922807,9.0922807 0 0 0 -9.0918,9.0918 l 0,31.94727 -23.86328,-63.37305 a 9.0922807,9.0922807 0 0 0 -8.50781,-5.88867 l -24.99219,0 a 9.0922807,9.0922807 0 0 0 -8.48633,5.82812 l -33.906248,88.15625 a 9.0922807,9.0922807 0 0 0 8.486328,12.35547 l 24.21875,0 a 9.0922807,9.0922807 0 0 0 8.45508,-5.75195 l 3.79883,-9.61914 19.1289,0 3.48828,9.43164 a 9.0922807,9.0922807 0 0 0 8.52735,5.93945 l 24.47656,0 a 9.0922807,9.0922807 0 0 0 4.125,-1 9.0922807,9.0922807 0 0 0 4.14258,1 l 21.18359,0 a 9.0922807,9.0922807 0 0 0 9.0918,-9.0918 l 0,-25.64062 c 0,-2.81471 0.39732,-4.6461 0.58203,-5.13867 a 9.0922807,9.0922807 0 0 0 0.0332,-0.084 c 0.94412,-2.59633 0.51224,-2.54101 5.01758,-2.54101 1.64917,0 3.24342,0.34315 5.11914,1.24023 a 9.0922807,9.0922807 0 0 0 2.13867,0.70117 c -0.0199,0.5254 -0.13867,1.03215 -0.13867,1.56055 0,9.86635 3.50492,19.25812 9.96094,26.73633 a 9.0922807,9.0922807 0 0 0 0.01,0.0117 c 8.08845,9.33702 19.90769,14.24805 32.89648,14.24805 6.20363,0 12.30696,-1.46501 17.88867,-4.25586 a 9.0922807,9.0922807 0 0 0 1.29102,-0.79883 9.0922807,9.0922807 0 0 0 6.7832,3.05273 l 21.18359,0 a 9.0922807,9.0922807 0 0 0 9.0918,-9.0918 l 0,-32.09765 c 0,-2.79021 0.60192,-3.23462 0.37695,-3.00391 -5.5e-4,5.7e-4 5.7e-4,-0.003 0,-0.002 0.53031,-0.54255 0.40552,-0.56055 1.63868,-0.56055 0.15948,0 -0.0427,-0.005 0.0566,-0.0117 0.18363,0.91053 0.60547,2.75045 0.60547,5.32227 l 0,30.35351 a 9.0922807,9.0922807 0 0 0 9.09179,9.0918 l 21.18164,0 a 9.0922807,9.0922807 0 0 0 7.23633,-3.60156 9.0922807,9.0922807 0 0 0 7.23047,3.60156 l 21.18359,0 a 9.0922807,9.0922807 0 0 0 9.0918,-9.0918 l 0,-36.63867 21.0625,40.8086 a 9.0922807,9.0922807 0 0 0 8.07813,4.92187 l 14.14453,0 A 9.0922807,9.0922807 0 0 0 478.5,619.52539 l 19.08398,-36.66601 c -0.0672,1.05666 -0.26757,2.07465 -0.26757,3.14843 0,9.8013 3.05494,19.03583 9.07421,26.28125 8.08571,9.76109 20.6129,14.51953 34.76368,14.51953 11.37009,0 21.75917,-3.40283 29.38476,-10.51562 1.88072,-1.75364 3.45219,-3.79274 4.85938,-5.97266 l 0,5.00781 a 9.0922807,9.0922807 0 0 0 9.09179,9.0918 l 21.18165,0 a 9.0922807,9.0922807 0 0 0 9.09179,-9.0918 l 0,-25.64062 c 0,-2.81134 0.39753,-4.64146 0.58399,-5.13867 a 9.0922807,9.0922807 0 0 0 0.0332,-0.084 c 0.94412,-2.59633 0.51224,-2.54101 5.01758,-2.54101 1.64917,0 3.24341,0.34314 5.11914,1.24023 a 9.0922807,9.0922807 0 0 0 13.01367,-8.20117 l 0,-20.21484 a 9.0922807,9.0922807 0 0 0 -8.37695,-9.0625 c -1.79959,-0.14208 -3.38068,-0.22266 -4.84766,-0.22266 -4.89528,0 -9.63949,0.93899 -13.94726,2.84375 a 9.0922807,9.0922807 0 0 0 -5.6875,-2.00391 l -21.18165,0 a 9.0922807,9.0922807 0 0 0 -9.09179,9.0918 l 0,7.72461 c -7.19799,-12.01343 -20.49956,-18.49609 -35.66602,-18.49609 -11.30691,0 -21.45855,3.35506 -29.05273,10.05078 a 9.0922807,9.0922807 0 0 0 -9.05078,-8.3711 l -23.70118,0 a 9.0922807,9.0922807 0 0 0 -8.23242,5.23438 l -6.15039,13.13086 -6.11719,-13.11524 a 9.0922807,9.0922807 0 0 0 -8.24023,-5.25 l -23.83008,0 a 9.0922807,9.0922807 0 0 0 -2.49023,0.35547 c 3.53129,-3.84278 5.63867,-9.13523 5.63867,-14.32031 0,-5.42186 -2.3035,-11.02096 -6.17774,-14.84375 -3.85174,-3.83781 -9.43088,-6.13086 -14.86132,-6.13086 -5.44198,0 -11.03613,2.2998 -14.88868,6.15234 -3.83833,3.83833 -6.08593,9.42299 -6.08593,14.82227 0,5.39928 2.22881,10.96187 6.02539,14.83008 a 9.0922807,9.0922807 0 0 0 0.0605,0.0586 c 0.0372,0.0371 0.0856,0.0628 0.12305,0.0996 a 9.0922807,9.0922807 0 0 0 -4.91797,8.06836 l 0,5.60742 c -1.60394,-3.22107 -3.60691,-6.19756 -6.35742,-8.5625 a 9.0922807,9.0922807 0 0 0 -0.0234,-0.0176 c -5.88801,-5.02935 -13.61172,-7.47461 -21.66211,-7.47461 -3.57149,0 -7.01389,0.46725 -10.2832,1.36914 l 0,-27.99219 a 9.0922807,9.0922807 0 0 0 -9.0918,-9.0918 l -21.18359,0 z m 23.50781,39.78906 c -0.005,0.003 -0.009,0.007 -0.0137,0.01 -0.009,0.005 -0.0199,0.008 -0.0293,0.0137 l 0.043,-0.0234 z m 9.25977,30.54883 c 0.0235,-0.004 -0.0336,-0.0703 0,0 z m -55.88867,0.48047 c 1.34656,0 3.12958,0.44549 5.76172,2.29102 a 9.0922807,9.0922807 0 0 0 8.26757,1.10937 l 0,4.01172 a 9.0922807,9.0922807 0 0 0 -8.16992,1.04297 c -2.70213,1.84236 -4.54627,2.29492 -5.85937,2.29492 -2.27182,0 -2.98085,-0.36917 -4.08399,-1.45508 -1.07671,-1.05989 -1.41992,-1.68166 -1.41992,-3.91992 0,-2.23826 0.34321,-2.86003 1.41992,-3.91992 1.10314,-1.08591 1.81217,-1.45508 4.08399,-1.45508 z" />
    <text
       xml:space="preserve"
       style="font-style:normal;font-variant:normal;font-weight:bold;font-stretch:normal;font-size:132.26612854px;line-height:125%;font-family:Aharoni;-inkscape-font-specification:'Aharoni Bold';letter-spacing:0px;word-spacing:0px;fill:#ffffff;fill-opacity:1;stroke:none;stroke-width:1px;stroke-linecap:butt;stroke-linejoin:miter;stroke-opacity:1"
       x="106.05791"
       y="615.32776"
       id="text6323"
       sodipodi:linespacing="125%"><tspan
         sodipodi:role="line"
         id="tspan6325"
         x="106.05791"
         y="615.32776">Archiver</tspan></text>
    <path
       style="opacity:1;fill:#666666;fill-opacity:0.21568627;fill-rule:nonzero;stroke:#000000;stroke-width:4.04061031;stroke-linecap:round;stroke-linejoin:miter;stroke-miterlimit:3.9000001;stroke-dasharray:none;stroke-opacity:1"
       d="m 426.8782,578.66213 c -0.72905,10.96788 -0.30352,22.17209 -0.75405,33.22429 -0.40288,3.40317 0.79525,7.83982 -2.86928,9.87687 -3.0247,3.06564 -7.66642,1.31939 -11.47766,1.80328 -6.1492,-0.20814 -12.55804,0.26363 -18.53098,-0.4909 -1.42068,-1.15403 -3.75041,-3.45702 -5.38024,-1.26207 -3.91498,2.78614 -9.18078,1.37775 -13.6558,1.81262 -5.22025,-0.15623 -10.62494,0.34645 -15.72816,-0.24988 -3.70909,-1.4798 -6.04253,-5.25451 -5.65176,-9.23655 -0.5831,-11.27609 0.13366,-22.64398 -1.01805,-33.87464 -0.69447,-2.1023 -3.10575,-0.27149 -2.76312,1.37811 -0.86272,12.00427 -0.27079,24.06936 -0.45378,36.09717 -1.48693,3.54815 -4.9653,6.3886 -9.046,5.82022 -7.68304,-0.11106 -15.51665,0.54549 -23.15656,-0.38276 -2.2484,-0.9112 -4.32902,-3.18584 -6.72441,-1.08499 -9.51077,4.47775 -20.35212,4.34792 -30.33654,1.6246 -14.09295,-4.20874 -25.45268,-16.96674 -27.71113,-31.65211 -0.72251,-2.83056 -0.0849,-6.13922 -1.22323,-8.77866 -3.52858,-1.2486 -7.90772,-3.22969 -11.52206,-1.35344 -2.3409,3.18253 -1.29792,7.64049 -1.76073,11.33239 -0.47979,8.58018 0.40889,17.30588 -1.11781,25.76309 -1.26286,2.69192 -4.20446,5.04503 -7.3167,4.34681 -16.55423,-0.0401 -33.05707,-0.16625 -49.60796,0.29358 -1.59516,2.19447 -0.23639,5.98433 -0.68757,8.78063 0,15.47684 0,30.95368 0,46.43052 2.17329,1.62038 5.98786,0.24402 8.78162,0.7004 123.40696,0 246.81394,0 370.2209,0 1.62038,-2.17329 0.24402,-5.98786 0.7004,-8.78162 -0.18932,-15.23542 0.39758,-30.50506 -0.365,-45.72025 -0.57797,-2.65319 -3.51259,-0.004 -5.18295,-0.0631 -7.44925,1.12879 -15.10255,1.24577 -22.55254,0.0809 -13.27795,-2.57643 -25.3962,-11.91353 -29.60599,-25.02312 -2.08273,-5.33022 -2.05435,-11.13833 -2.95594,-16.62992 -2.4797,0.74019 -2.8448,4.94491 -4.51043,6.97766 -5.62289,10.25595 -10.31432,21.07131 -16.759,30.84091 -2.558,3.53623 -7.30127,1.74809 -11.03541,2.27132 -4.63981,-0.34618 -10.04286,1.17948 -14.05169,-1.73862 -4.38268,-5.89825 -7.28063,-12.80934 -10.88658,-19.21936 -4.32013,-7.95845 -8.06265,-16.39171 -12.71489,-24.06528 l -0.48906,0.12616 -0.0999,0.0258 z"
       id="path6349"
       inkscape:connector-curvature="0" />
    <path
       style="opacity:1;fill:#666666;fill-opacity:0.21568627;fill-rule:nonzero;stroke:#000000;stroke-width:4.04061031;stroke-linecap:round;stroke-linejoin:miter;stroke-miterlimit:3.9000001;stroke-dasharray:none;stroke-opacity:1"
       d="m 255.59026,456.46326 c -11.26231,0.15191 -22.64826,-0.28928 -33.8332,0.2338 -7.31385,7.8315 -14.62823,15.6625 -21.9432,23.49295 -7.0629,0.17844 -14.28806,-0.35232 -21.25069,0.26438 -0.41454,18.27166 -0.29896,36.66754 -0.3867,54.97637 6.3978,17.13734 12.79543,34.27475 19.1929,51.41222 2.68431,1.03109 0.85205,-4.62579 1.4456,-6.29504 0.13761,-9.35005 0.27527,-18.7001 0.41292,-28.05014 1.378,-2.87401 3.92201,-5.38323 7.30782,-5.23919 8.14606,-0.30803 16.39476,-0.57514 24.52679,0.14502 2.07582,1.30154 4.49791,1.38177 6.70607,0.26733 5.30189,-1.44994 10.98831,-1.6421 16.37058,-1.15319 4.46239,1.03786 6.94132,5.65108 6.64404,10.00782 0.28281,3.05523 2.64676,-0.291 3.79486,-1.1897 12.16594,-10.39288 30.17521,-13.07689 45.04057,-6.7475 2.19699,-1.23349 0.34546,-5.41174 0.99633,-7.72479 0.26335,-8.52476 -0.20613,-17.27376 0.51451,-25.65856 1.78324,-3.72647 5.87151,-5.71027 9.92422,-5.26964 7.47827,0.0812 15.11471,-0.48873 22.5402,0.54439 3.39266,1.45439 5.20193,4.92395 4.88208,8.4985 0.40389,9.19238 -0.28106,18.61076 0.38374,27.73185 8.52831,-1.03804 17.96523,-1.99306 25.87529,2.29454 5.2423,2.42443 9.58688,6.67348 12.35563,11.75486 2.36477,0.8155 0.88644,-3.37713 1.32385,-4.81006 -0.16728,-3.39043 1.9495,-6.19405 4.39969,-8.28246 -0.0952,-2.42908 -2.96078,-4.25595 -3.72889,-6.71002 -2.20996,-5.14853 -2.25321,-11.21773 -0.35019,-16.44359 4.23701,-10.21451 17.36238,-15.64165 27.31357,-10.45665 10.03828,4.18145 14.79003,17.37853 9.69806,27.05315 -0.77185,1.97221 -2.51145,3.44892 -3.2465,5.36544 2.45962,1.2444 5.93346,0.0812 8.76624,0.42547 6.91774,0.19495 14.12931,-0.76828 20.7896,0.62316 5.41088,2.73866 6.84727,9.42543 9.53486,14.34935 0.41433,1.09675 1.63817,4.09141 2.83557,2.03307 3.10344,-4.84401 4.16698,-11.02621 8.26963,-15.18188 4.50681,-2.78 10.24039,-1.39392 15.32081,-1.88343 5.53023,0.2197 11.25334,-0.66985 16.61442,0.73517 2.87622,1.28711 4.91082,3.95261 5.52723,6.99117 2.03984,0.5004 3.81378,-2.10419 5.64758,-2.80653 9.59427,-6.49996 21.59746,-6.9764 32.71355,-5.72453 3.13444,0.44691 6.14406,1.96832 9.2719,2.21267 0.71296,-5.75672 0.0822,-11.85878 0.29594,-17.74377 0,-16.53828 0,-33.07657 0,-49.61486 -2.17329,-1.62038 -5.98786,-0.24402 -8.78162,-0.7004 -78.76362,0 -157.52724,0 -236.29085,0 -8.07376,-7.85381 -15.8366,-16.1744 -24.10359,-23.73858 -11.10707,0.004 -22.21415,0.008 -33.32122,0.0118 z"
       id="path6351"
       inkscape:connector-curvature="0" />
    <path
       style="opacity:1;fill:#666666;fill-opacity:0.21568627;fill-rule:nonzero;stroke:#000000;stroke-width:4.04061031;stroke-linecap:round;stroke-linejoin:miter;stroke-miterlimit:3.9000001;stroke-dasharray:none;stroke-opacity:1"
       d="m 295.39954,579.54996 c -5.11386,-0.10077 -7.33893,7.05085 -3.6105,10.23766 3.81448,3.38251 8.83756,0.0511 12.58547,-1.67701 1.9368,-1.1986 4.82047,0.72685 6.22665,-0.90164 0.6032,-2.86457 -0.26025,-5.35658 -3.62531,-4.03766 -4.17878,0.1417 -7.25794,-3.95781 -11.57631,-3.62135 z"
       id="path6353"
       inkscape:connector-curvature="0" />
  </g>
</svg>
